# This file uses centimeters as units for non-parametric coordinates.

mtllib Geo_Paper.mtl
g default
v -0.072467 0.000000 0.054831
v 0.072467 0.000000 0.054831
v -0.072467 0.000000 -0.054831
v 0.072467 0.000000 -0.054831
v 0.000000 -0.010406 0.054831
v 0.000000 -0.010406 -0.054831
v 0.036234 -0.006938 0.054831
v -0.036234 -0.006938 -0.054831
v -0.036234 -0.006938 0.054831
v 0.036234 -0.006938 -0.054831
vt 0.004622 0.004622
vt 0.995378 0.004622
vt 0.004622 0.995378
vt 0.995378 0.995378
vt 0.500000 0.004622
vt 0.500000 0.995378
vt 0.252311 0.995378
vt 0.252311 0.004622
vt 0.747689 0.995378
vt 0.747689 0.004622
vn 0.142144 0.989846 0.000000
vn 0.000000 1.000000 0.000000
vn 0.000000 1.000000 0.000000
vn 0.142144 0.989846 0.000000
vn 0.188053 0.982159 0.000000
vn 0.188053 0.982159 0.000000
vn -0.188053 0.982159 0.000000
vn -0.188053 0.982159 0.000000
vn -0.142144 0.989846 0.000000
vn -0.142144 0.989846 0.000000
s 1
g pPlane41
usemtl initialShadingGroup
f 9/8/1 5/5/2 6/6/3 8/7/4
f 9/8/1 8/7/4 3/3/5 1/1/6
f 2/2/7 4/4/8 10/9/9 7/10/10
f 10/9/9 6/6/3 5/5/2 7/10/10
